<svg width="72" height="108" viewBox="0 0 72 108" fill="none" xmlns="http://www.w3.org/2000/svg">
<path d="M33.6187 53.9485L38.0952 53.5916H42.6962L47.2971 54.127L49.5976 54.8408L50.7789 55.1978L51.8981 55.5547L52.8929 55.9117L53.8877 56.2686L55.8773 57.161L57.9912 58.4103L60.1984 59.6178L62.0899 60.8231L63.9813 62.179L66.8682 64.4389L69.0583 76.7928L65.0791 72.8664L60.7269 68.94L55.6286 65.5491L50.343 63.6856L46.5601 62.631L41.8813 62.179L37.4735 61.9797L33.6187 62.5151V53.9485Z" fill="#2D7EB9"/>
<path d="M33.6187 70.1289L38.4668 69.767H43.4497L48.4325 70.3099L50.9239 71.0339L52.2033 71.3958L53.4153 71.7578L54.4927 72.1198L55.5701 72.4817L57.7248 73.3867L60.0142 74.6535L62.4046 75.8781L64.4531 77.1004L66.5015 78.4754L69.6281 80.7671L72 93.295L67.6905 89.3133L62.977 85.3316L57.4555 81.8929L51.7312 80.0032L47.6343 78.9337L42.5671 78.4754L37.7935 78.2732L33.6187 78.8162V70.1289Z" fill="#2D7EB9"/>
<path fill-rule="evenodd" clip-rule="evenodd" d="M30.1167 0.407771L28.6462 0L26.7549 79.2436L30.1167 78.8358V0.407771ZM36.839 7.84266L33.6187 8.11414V14.6296L36.3917 14.2224L39.612 14.0866L42.9218 14.4938L45.6054 15.3083L49.4519 16.9371L53.1195 19.5162L56.2503 22.5024L59.1128 25.4887L57.5921 17.4801L55.2664 14.9011L53.9246 13.6794L52.5828 12.5935L51.1515 11.5076L49.6308 10.5574L48.1996 9.87874L47.4839 9.60726L46.7683 9.33578L45.9632 9.06431L45.1134 8.79283L43.4585 8.24988L40.1488 7.84266H36.839ZM37.246 23.528L33.6187 23.8196V30.8176L36.7422 30.3803L40.3694 30.2345L44.0975 30.6718L47.1202 31.5466L51.4528 33.2961L55.5839 36.0662L59.1104 39.2736L62.3346 42.4811L60.6296 33.1399L58.0021 31.1092L56.4907 29.7971L54.9793 28.6307L53.3672 27.4644L51.6543 26.4438L50.0422 25.7149L49.2361 25.4233L48.4301 25.1317L47.5232 24.8401L46.566 24.5485L44.702 23.9654L40.974 23.528H37.246ZM33.6187 39.2083L37.6529 38.8865H41.7992L45.9455 39.3692L48.0187 40.0127L49.0833 40.3344L50.0918 40.6562L50.9883 40.9779L51.8848 41.2997L53.6778 42.104L55.5829 43.2302L57.572 44.3187L59.2765 45.4051L60.9811 46.6273L63.5827 48.6644L65.5564 59.8003L61.9704 56.2611L58.0482 52.7218L53.4537 49.6652L48.6904 47.9854L45.2813 47.0348L41.0648 46.6273L37.0926 46.4477L33.6187 46.9303V39.2083ZM25.2509 0.163389H26.7549L23.4815 80.0349L20.0311 80.7141L25.2509 0.163389ZM23.6732 0.816944L22.2324 1.63145L13.5875 82.6747L17.0094 81.5887L23.6732 0.816944ZM19.0835 4.27091L20.4514 2.77761L10.4203 83.8233L6.86381 85.4523L19.0835 4.27091ZM16.6693 7.84266L15.2198 9.06281L0 89.8638L3.62375 87.4235L16.6693 7.84266Z" fill="#2D7EB9"/>
<path d="M11.8188 100.045H3.49375V89.5448H11.8188V91.6448H6.19375V93.6698H10.6188V95.7698H6.19375V97.9448H11.8188V100.045ZM16.0152 98.0948C16.5452 98.0948 17.1452 97.9948 17.8152 97.7948V96.8948H15.6402C15.4902 96.8948 15.3652 96.9448 15.2652 97.0448C15.1652 97.1448 15.1152 97.2698 15.1152 97.4198V97.5698C15.1152 97.7198 15.1652 97.8448 15.2652 97.9448C15.3652 98.0448 15.4902 98.0948 15.6402 98.0948H16.0152ZM13.2402 92.2448C15.0702 92.0448 16.7202 91.9448 18.1902 91.9448C18.8702 91.9448 19.4152 92.1498 19.8252 92.5598C20.2352 92.9698 20.4402 93.5148 20.4402 94.1948V100.045H18.1152L17.9652 99.2948C17.4952 99.6048 17.0102 99.8348 16.5102 99.9848C16.0202 100.125 15.6052 100.195 15.2652 100.195H14.7402C14.0602 100.195 13.5152 99.9898 13.1052 99.5798C12.6952 99.1698 12.4902 98.6248 12.4902 97.9448V97.2698C12.4902 96.5898 12.6952 96.0448 13.1052 95.6348C13.5152 95.2248 14.0602 95.0198 14.7402 95.0198H17.8152V94.4198C17.8152 94.2698 17.7652 94.1448 17.6652 94.0448C17.5652 93.9448 17.4402 93.8948 17.2902 93.8948C16.6402 93.8948 15.9202 93.9248 15.1302 93.9848C14.3502 94.0448 13.7202 94.0898 13.2402 94.1198V92.2448ZM21.4861 97.9448C23.5161 98.0948 25.1161 98.1698 26.2861 98.1698C26.4361 98.1698 26.5611 98.1198 26.6611 98.0198C26.7611 97.9198 26.8111 97.7948 26.8111 97.6448V97.1198H23.5861C22.9061 97.1198 22.3611 96.9148 21.9511 96.5048C21.5411 96.0948 21.3361 95.5498 21.3361 94.8698V94.3448C21.3361 93.6648 21.5411 93.1198 21.9511 92.7098C22.3611 92.2998 22.9061 92.0948 23.5861 92.0948H28.6861V94.0448H24.4861C24.3361 94.0448 24.2111 94.0948 24.1111 94.1948C24.0111 94.2948 23.9611 94.4198 23.9611 94.5698C23.9611 94.7198 24.0111 94.8448 24.1111 94.9448C24.2111 95.0448 24.3361 95.0948 24.4861 95.0948H27.1861C27.8661 95.0948 28.4111 95.2998 28.8211 95.7098C29.2311 96.1198 29.4361 96.6648 29.4361 97.3448V97.9448C29.4361 98.6248 29.2311 99.1698 28.8211 99.5798C28.4111 99.9898 27.8661 100.195 27.1861 100.195C25.4161 100.195 23.5161 100.095 21.4861 99.8948V97.9448ZM32.2943 102.745C31.7643 102.745 31.1143 102.695 30.3443 102.595V100.645H31.6943C32.0743 100.645 32.3193 100.54 32.4293 100.33C32.5493 100.12 32.5293 99.8248 32.3693 99.4448L29.2943 92.0948H32.0693L33.9443 97.1948L35.5193 92.0948H38.2943L35.2943 100.345C35.0043 101.135 34.6293 101.73 34.1693 102.13C33.7093 102.54 33.0843 102.745 32.2943 102.745Z" fill="#2D7EB9"/>
<path d="M55.8432 97.7948C55.8432 98.5448 55.6282 99.1348 55.1982 99.5648C54.7782 99.9848 54.1932 100.195 53.4432 100.195H49.9932C49.2432 100.195 48.6532 99.9848 48.2232 99.5648C47.8032 99.1348 47.5932 98.5448 47.5932 97.7948V94.3448C47.5932 93.5948 47.8032 93.0098 48.2232 92.5898C48.6532 92.1598 49.2432 91.9448 49.9932 91.9448H53.4432C54.1932 91.9448 54.7782 92.1598 55.1982 92.5898C55.6282 93.0098 55.8432 93.5948 55.8432 94.3448V97.7948ZM53.2182 94.5698C53.2182 94.1698 53.0182 93.9698 52.6182 93.9698H50.8182C50.4182 93.9698 50.2182 94.1698 50.2182 94.5698V97.5698C50.2182 97.9698 50.4182 98.1698 50.8182 98.1698H52.6182C53.0182 98.1698 53.2182 97.9698 53.2182 97.5698V94.5698ZM61.6164 94.1198C61.0864 94.1198 60.4864 94.2198 59.8164 94.4198V100.045H57.1914V92.0948H59.5164L59.6664 92.8448C60.1364 92.5348 60.6164 92.3098 61.1064 92.1698C61.6064 92.0198 62.0264 91.9448 62.3664 91.9448H63.0414C63.7214 91.9448 64.2664 92.1498 64.6764 92.5598C65.0864 92.9698 65.2914 93.5148 65.2914 94.1948V100.045H62.6664V94.6448C62.6664 94.4948 62.6164 94.3698 62.5164 94.2698C62.4164 94.1698 62.2914 94.1198 62.1414 94.1198H61.6164Z" fill="black"/>
<path d="M52.1303 82.974L56.5616 82.0601L53.876 83.7863L50.3846 86.8326L48.3704 89.3712L46.6247 92.7222L45.819 95.1592L45.5505 98.5102L45.819 101.556L46.3562 103.79H41.2534L40.582 100.846V97.7994L41.1192 94.8546L42.1934 91.9098L43.9391 89.4728L46.2219 86.8326L48.7733 84.8017L52.1303 82.974Z" fill="#2D7EB9"/>
</svg>
