<svg width="228" height="325" viewBox="0 0 228 325" fill="none" xmlns="http://www.w3.org/2000/svg">
<path d="M106.459 162.345L120.635 161.271H135.205L149.774 162.882L157.059 165.03L160.8 166.104L164.344 167.178L167.494 168.253L170.644 169.327L176.945 172.012L183.639 175.772L190.628 179.405L196.618 183.032L202.607 187.113L211.749 193.913L218.685 231.089L206.084 219.274L192.302 207.458L176.157 197.254L159.419 191.646L147.44 188.473L132.624 187.113L118.666 186.513L106.459 188.124V162.345Z" fill="#2D7EB9"/>
<path d="M106.459 211.036L121.812 209.947H137.591L153.369 211.581L161.259 213.759L165.31 214.849L169.148 215.938L172.56 217.027L175.972 218.116L182.795 220.84L190.045 224.652L197.615 228.337L204.101 232.015L210.588 236.153L220.489 243.049L228 280.749L214.353 268.767L199.427 256.785L181.942 246.437L163.815 240.75L150.842 237.532L134.796 236.153L119.679 235.545L106.459 237.178V211.036Z" fill="#2D7EB9"/>
<path fill-rule="evenodd" clip-rule="evenodd" d="M95.3697 1.22709L90.713 0L84.7237 238.464L95.3697 237.237V1.22709ZM116.657 23.6006L106.459 24.4175V44.0242L115.24 42.7988L125.438 42.3903L135.919 43.6157L144.417 46.0666L156.598 50.9682L168.212 58.7292L178.126 67.7156L187.191 76.702L182.375 52.6021L175.01 44.8411L170.761 41.1649L166.512 37.8971L161.98 34.6293L157.164 31.77L152.632 29.7277L150.366 28.9107L148.1 28.0938L145.55 27.2769L142.859 26.4599L137.619 24.826L127.138 23.6006H116.657ZM117.946 70.8018L106.459 71.6793V92.7383L116.35 91.4221L127.837 90.9834L139.642 92.2995L149.214 94.9319L162.934 100.197L176.016 108.533L187.183 118.185L197.393 127.837L191.994 99.7266L183.673 93.6157L178.887 89.6672L174.101 86.1573L168.996 82.6475L163.572 79.5764L158.467 77.3828L155.914 76.5053L153.362 75.6278L150.49 74.7504L147.459 73.8729L141.556 72.118L129.751 70.8018H117.946ZM106.459 117.988L119.234 117.02H132.364L145.494 118.472L152.059 120.408L155.43 121.377L158.624 122.345L161.463 123.313L164.302 124.281L169.98 126.702L176.012 130.091L182.311 133.366L187.709 136.636L193.107 140.314L201.345 146.444L207.595 179.955L196.24 169.304L183.819 158.654L169.27 149.455L154.186 144.4L143.391 141.54L130.039 140.314L117.46 139.773L106.459 141.225V117.988ZM79.9611 0.491679H84.7237L74.358 240.846L63.4319 242.89L79.9611 0.491679ZM74.965 2.4584L70.4024 4.90945L43.0272 248.79L53.8633 245.522L74.965 2.4584ZM60.431 12.8523L64.7626 8.35855L32.9976 252.246L21.7354 257.148L60.431 12.8523ZM52.786 23.6006L48.1959 27.2724L0 270.424L11.4752 263.08L52.786 23.6006Z" fill="#2D7EB9"/>
<path d="M38.9634 304.931H11.2134V269.931H38.9634V276.931H20.2134V283.681H34.9634V290.681H20.2134V297.931H38.9634V304.931ZM52.9517 298.431C54.7183 298.431 56.7183 298.098 58.9517 297.431V294.431H51.7017C51.2017 294.431 50.785 294.598 50.4517 294.931C50.1183 295.264 49.9517 295.681 49.9517 296.181V296.681C49.9517 297.181 50.1183 297.598 50.4517 297.931C50.785 298.264 51.2017 298.431 51.7017 298.431H52.9517ZM43.7017 278.931C49.8017 278.264 55.3017 277.931 60.2017 277.931C62.4683 277.931 64.285 278.614 65.6517 279.981C67.0183 281.348 67.7017 283.164 67.7017 285.431V304.931H59.9517L59.4517 302.431C57.885 303.464 56.2683 304.231 54.6017 304.731C52.9683 305.198 51.585 305.431 50.4517 305.431H48.7017C46.435 305.431 44.6183 304.748 43.2517 303.381C41.885 302.014 41.2017 300.198 41.2017 297.931V295.681C41.2017 293.414 41.885 291.598 43.2517 290.231C44.6183 288.864 46.435 288.181 48.7017 288.181H58.9517V286.181C58.9517 285.681 58.785 285.264 58.4517 284.931C58.1183 284.598 57.7017 284.431 57.2017 284.431C55.035 284.431 52.635 284.531 50.0017 284.731C47.4017 284.931 45.3017 285.081 43.7017 285.181V278.931ZM71.188 297.931C77.9547 298.431 83.288 298.681 87.188 298.681C87.688 298.681 88.1047 298.514 88.438 298.181C88.7713 297.848 88.938 297.431 88.938 296.931V295.181H78.188C75.9213 295.181 74.1047 294.498 72.738 293.131C71.3713 291.764 70.688 289.948 70.688 287.681V285.931C70.688 283.664 71.3713 281.848 72.738 280.481C74.1047 279.114 75.9213 278.431 78.188 278.431H95.188V284.931H81.188C80.688 284.931 80.2713 285.098 79.938 285.431C79.6047 285.764 79.438 286.181 79.438 286.681C79.438 287.181 79.6047 287.598 79.938 287.931C80.2713 288.264 80.688 288.431 81.188 288.431H90.188C92.4547 288.431 94.2713 289.114 95.638 290.481C97.0047 291.848 97.688 293.664 97.688 295.931V297.931C97.688 300.198 97.0047 302.014 95.638 303.381C94.2713 304.748 92.4547 305.431 90.188 305.431C84.288 305.431 77.9547 305.098 71.188 304.431V297.931ZM107.215 313.931C105.449 313.931 103.282 313.764 100.715 313.431V306.931H105.215C106.482 306.931 107.299 306.581 107.665 305.881C108.065 305.181 107.999 304.198 107.465 302.931L97.2153 278.431H106.465L112.715 295.431L117.965 278.431H127.215L117.215 305.931C116.249 308.564 114.999 310.548 113.465 311.881C111.932 313.248 109.849 313.931 107.215 313.931Z" fill="#2D7EB9"/>
<path d="M185.711 297.431C185.711 299.931 184.995 301.898 183.561 303.331C182.161 304.731 180.211 305.431 177.711 305.431H166.211C163.711 305.431 161.745 304.731 160.311 303.331C158.911 301.898 158.211 299.931 158.211 297.431V285.931C158.211 283.431 158.911 281.481 160.311 280.081C161.745 278.648 163.711 277.931 166.211 277.931H177.711C180.211 277.931 182.161 278.648 183.561 280.081C184.995 281.481 185.711 283.431 185.711 285.931V297.431ZM176.961 286.681C176.961 285.348 176.295 284.681 174.961 284.681H168.961C167.628 284.681 166.961 285.348 166.961 286.681V296.681C166.961 298.014 167.628 298.681 168.961 298.681H174.961C176.295 298.681 176.961 298.014 176.961 296.681V286.681ZM204.956 285.181C203.189 285.181 201.189 285.514 198.956 286.181V304.931H190.206V278.431H197.956L198.456 280.931C200.022 279.898 201.622 279.148 203.256 278.681C204.922 278.181 206.322 277.931 207.456 277.931H209.706C211.972 277.931 213.789 278.614 215.156 279.981C216.522 281.348 217.206 283.164 217.206 285.431V304.931H208.456V286.931C208.456 286.431 208.289 286.014 207.956 285.681C207.622 285.348 207.206 285.181 206.706 285.181H204.956Z" fill="black"/>
<path d="M165.079 249.69L179.111 246.94L170.607 252.135L159.551 261.302L153.172 268.941L147.645 279.025L145.093 286.359L144.243 296.443L145.093 305.61L146.794 312.332H130.635L128.509 303.471V294.304L130.21 285.442L133.612 276.58L139.14 269.247L146.369 261.302L154.448 255.19L165.079 249.69Z" fill="#2D7EB9"/>
</svg>
