<svg width="330" height="433" viewBox="0 0 330 433" fill="none" xmlns="http://www.w3.org/2000/svg">
<path d="M154.086 216.293L174.604 214.862H195.691L216.779 217.009L227.323 219.871L232.737 221.302L237.867 222.733L242.426 224.164L246.986 225.595L256.105 229.173L265.793 234.182L275.91 239.023L284.579 243.855L293.248 249.292L306.48 258.352L316.518 307.882L298.28 292.14L278.332 276.398L254.965 262.803L230.739 255.332L213.401 251.104L191.956 249.292L171.754 248.492L154.086 250.639V216.293Z" fill="#2D7EB9"/>
<path d="M154.086 281.165L176.307 279.714H199.145L221.983 281.891L233.402 284.793L239.266 286.245L244.821 287.696L249.759 289.147L254.697 290.598L264.573 294.226L275.066 299.306L286.022 304.215L295.41 309.116L304.799 314.628L319.129 323.816L330 374.044L310.249 358.08L288.645 342.117L263.338 328.33L237.102 320.754L218.324 316.466L195.1 314.628L173.22 313.818L154.086 315.995V281.165Z" fill="#2D7EB9"/>
<path fill-rule="evenodd" clip-rule="evenodd" d="M138.035 1.63486L131.295 0L122.626 317.708L138.035 316.073V1.63486ZM168.845 31.4433L154.086 32.5317V58.6538L166.795 57.0212L181.555 56.4769L196.725 58.1096L209.025 61.3748L226.655 67.9054L243.464 78.2454L257.814 90.218L270.934 102.191L263.964 70.0822L253.304 59.7422L247.154 54.8443L241.004 50.4906L234.444 46.1369L227.475 42.3275L220.915 39.6064L217.635 38.518L214.355 37.4296L210.665 36.3412L206.77 35.2527L199.185 33.0759L184.015 31.4433H168.845ZM170.711 94.3298L154.086 95.4988V123.556L168.402 121.802L185.027 121.218L202.113 122.971L215.968 126.479L235.825 133.493L254.759 144.599L270.923 157.458L285.7 170.318L277.886 132.867L265.843 124.725L258.916 119.464L251.989 114.788L244.6 110.112L236.749 106.02L229.36 103.098L225.666 101.929L221.971 100.76L217.815 99.5905L213.428 98.4215L204.884 96.0834L187.797 94.3298H170.711ZM154.086 157.196L172.576 155.906H191.58L210.584 157.841L220.086 160.421L224.965 161.711L229.588 163.001L233.696 164.291L237.805 165.581L246.023 168.806L254.755 173.321L263.872 177.685L271.684 182.041L279.497 186.941L291.421 195.108L300.467 239.755L284.031 225.565L266.054 211.375L244.996 199.121L223.164 192.386L207.539 188.575L188.214 186.941L170.008 186.221L154.086 188.156V157.196ZM115.733 0.655068H122.626L107.623 320.881L91.8093 323.604L115.733 0.655068ZM108.502 3.27534L101.898 6.5409L62.2763 331.464L77.96 327.11L108.502 3.27534ZM87.466 17.1232L93.7354 11.1362L47.7596 336.069L31.4591 342.601L87.466 17.1232ZM76.4008 31.4433L69.7572 36.3352L0 360.287L16.6089 350.504L76.4008 31.4433Z" fill="#2D7EB9"/>
<path d="M54.9377 409.976H16.0877V360.976H54.9377V370.776H28.6877V380.226H49.3377V390.026H28.6877V400.176H54.9377V409.976ZM74.5213 400.876C76.9946 400.876 79.7946 400.409 82.9213 399.476V395.276H72.7713C72.0713 395.276 71.488 395.509 71.0213 395.976C70.5546 396.442 70.3213 397.026 70.3213 397.726V398.426C70.3213 399.126 70.5546 399.709 71.0213 400.176C71.488 400.642 72.0713 400.876 72.7713 400.876H74.5213ZM61.5713 373.576C70.1113 372.642 77.8113 372.176 84.6713 372.176C87.8446 372.176 90.388 373.132 92.3013 375.046C94.2146 376.959 95.1713 379.502 95.1713 382.676V409.976H84.3213L83.6213 406.476C81.428 407.922 79.1646 408.996 76.8313 409.696C74.5446 410.349 72.608 410.676 71.0213 410.676H68.5713C65.398 410.676 62.8546 409.719 60.9413 407.806C59.028 405.892 58.0713 403.349 58.0713 400.176V397.026C58.0713 393.852 59.028 391.309 60.9413 389.396C62.8546 387.482 65.398 386.526 68.5713 386.526H82.9213V383.726C82.9213 383.026 82.688 382.442 82.2213 381.976C81.7546 381.509 81.1713 381.276 80.4713 381.276C77.438 381.276 74.078 381.416 70.3913 381.696C66.7513 381.976 63.8113 382.186 61.5713 382.326V373.576ZM100.052 400.176C109.525 400.876 116.992 401.226 122.452 401.226C123.152 401.226 123.735 400.992 124.202 400.526C124.669 400.059 124.902 399.476 124.902 398.776V396.326H109.852C106.679 396.326 104.135 395.369 102.222 393.456C100.309 391.542 99.3521 388.999 99.3521 385.826V383.376C99.3521 380.202 100.309 377.659 102.222 375.746C104.135 373.832 106.679 372.876 109.852 372.876H133.652V381.976H114.052C113.352 381.976 112.769 382.209 112.302 382.676C111.835 383.142 111.602 383.726 111.602 384.426C111.602 385.126 111.835 385.709 112.302 386.176C112.769 386.642 113.352 386.876 114.052 386.876H126.652C129.825 386.876 132.369 387.832 134.282 389.746C136.195 391.659 137.152 394.202 137.152 397.376V400.176C137.152 403.349 136.195 405.892 134.282 407.806C132.369 409.719 129.825 410.676 126.652 410.676C118.392 410.676 109.525 410.209 100.052 409.276V400.176ZM150.49 422.576C148.017 422.576 144.984 422.342 141.39 421.876V412.776H147.69C149.464 412.776 150.607 412.286 151.12 411.306C151.68 410.326 151.587 408.949 150.84 407.176L136.49 372.876H149.44L158.19 396.676L165.54 372.876H178.49L164.49 411.376C163.137 415.062 161.387 417.839 159.24 419.706C157.094 421.619 154.177 422.576 150.49 422.576Z" fill="#2D7EB9"/>
<path d="M260.385 399.476C260.385 402.976 259.382 405.729 257.375 407.736C255.415 409.696 252.685 410.676 249.185 410.676H233.085C229.585 410.676 226.832 409.696 224.825 407.736C222.865 405.729 221.885 402.976 221.885 399.476V383.376C221.885 379.876 222.865 377.146 224.825 375.186C226.832 373.179 229.585 372.176 233.085 372.176H249.185C252.685 372.176 255.415 373.179 257.375 375.186C259.382 377.146 260.385 379.876 260.385 383.376V399.476ZM248.135 384.426C248.135 382.559 247.202 381.626 245.335 381.626H236.935C235.068 381.626 234.135 382.559 234.135 384.426V398.426C234.135 400.292 235.068 401.226 236.935 401.226H245.335C247.202 401.226 248.135 400.292 248.135 398.426V384.426ZM287.327 382.326C284.853 382.326 282.053 382.792 278.927 383.726V409.976H266.677V372.876H277.527L278.227 376.376C280.42 374.929 282.66 373.879 284.947 373.226C287.28 372.526 289.24 372.176 290.827 372.176H293.977C297.15 372.176 299.693 373.132 301.607 375.046C303.52 376.959 304.477 379.502 304.477 382.676V409.976H292.227V384.776C292.227 384.076 291.993 383.492 291.527 383.026C291.06 382.559 290.477 382.326 289.777 382.326H287.327Z" fill="black"/>
<path d="M238.93 332.664L259.24 329L246.931 335.921L230.929 348.134L221.697 358.312L213.696 371.747L210.003 381.518L208.772 394.953L210.003 407.166L212.465 416.123H189.077L186 404.316V392.103L188.462 380.297L193.386 368.49L201.387 358.719L211.849 348.134L223.543 339.992L238.93 332.664Z" fill="#2D7EB9"/>
</svg>
