<svg width="514" height="661" viewBox="0 0 514 661" fill="none" xmlns="http://www.w3.org/2000/svg">
<path d="M350.933 511.804L377 506L361.202 516.963L340.664 536.308L328.815 552.43L318.546 573.71L313.807 589.187L312.227 610.467L313.807 629.813L316.966 644H286.95L283 625.299V605.953L286.16 587.252L292.479 568.551L302.748 553.075L316.176 536.308L331.185 523.411L350.933 511.804Z" fill="#2D7EB9"/>
<path d="M98.5 633H43V563H98.5V577H61V590.5H90.5V604.5H61V619H98.5V633ZM126.477 620C130.01 620 134.01 619.333 138.477 618V612H123.977C122.977 612 122.143 612.333 121.477 613C120.81 613.667 120.477 614.5 120.477 615.5V616.5C120.477 617.5 120.81 618.333 121.477 619C122.143 619.667 122.977 620 123.977 620H126.477ZM107.977 581C120.177 579.667 131.177 579 140.977 579C145.51 579 149.143 580.367 151.877 583.1C154.61 585.833 155.977 589.467 155.977 594V633H140.477L139.477 628C136.343 630.067 133.11 631.6 129.777 632.6C126.51 633.533 123.743 634 121.477 634H117.977C113.443 634 109.81 632.633 107.077 629.9C104.343 627.167 102.977 623.533 102.977 619V614.5C102.977 609.967 104.343 606.333 107.077 603.6C109.81 600.867 113.443 599.5 117.977 599.5H138.477V595.5C138.477 594.5 138.143 593.667 137.477 593C136.81 592.333 135.977 592 134.977 592C130.643 592 125.843 592.2 120.577 592.6C115.377 593 111.177 593.3 107.977 593.5V581ZM162.949 619C176.483 620 187.149 620.5 194.949 620.5C195.949 620.5 196.783 620.167 197.449 619.5C198.116 618.833 198.449 618 198.449 617V613.5H176.949C172.416 613.5 168.783 612.133 166.049 609.4C163.316 606.667 161.949 603.033 161.949 598.5V595C161.949 590.467 163.316 586.833 166.049 584.1C168.783 581.367 172.416 580 176.949 580H210.949V593H182.949C181.949 593 181.116 593.333 180.449 594C179.783 594.667 179.449 595.5 179.449 596.5C179.449 597.5 179.783 598.333 180.449 599C181.116 599.667 181.949 600 182.949 600H200.949C205.483 600 209.116 601.367 211.849 604.1C214.583 606.833 215.949 610.467 215.949 615V619C215.949 623.533 214.583 627.167 211.849 629.9C209.116 632.633 205.483 634 200.949 634C189.149 634 176.483 633.333 162.949 632V619ZM235.004 651C231.471 651 227.137 650.667 222.004 650V637H231.004C233.537 637 235.171 636.3 235.904 634.9C236.704 633.5 236.571 631.533 235.504 629L215.004 580H233.504L246.004 614L256.504 580H275.004L255.004 635C253.071 640.267 250.571 644.233 247.504 646.9C244.437 649.633 240.271 651 235.004 651Z" fill="#2D7EB9"/>
<path d="M391.996 618C391.996 623 390.563 626.933 387.696 629.8C384.896 632.6 380.996 634 375.996 634H352.996C347.996 634 344.063 632.6 341.196 629.8C338.396 626.933 336.996 623 336.996 618V595C336.996 590 338.396 586.1 341.196 583.3C344.063 580.433 347.996 579 352.996 579H375.996C380.996 579 384.896 580.433 387.696 583.3C390.563 586.1 391.996 590 391.996 595V618ZM374.496 596.5C374.496 593.833 373.163 592.5 370.496 592.5H358.496C355.829 592.5 354.496 593.833 354.496 596.5V616.5C354.496 619.167 355.829 620.5 358.496 620.5H370.496C373.163 620.5 374.496 619.167 374.496 616.5V596.5ZM430.484 593.5C426.951 593.5 422.951 594.167 418.484 595.5V633H400.984V580H416.484L417.484 585C420.618 582.933 423.818 581.433 427.084 580.5C430.418 579.5 433.218 579 435.484 579H439.984C444.518 579 448.151 580.367 450.884 583.1C453.618 585.833 454.984 589.467 454.984 594V633H437.484V597C437.484 596 437.151 595.167 436.484 594.5C435.818 593.833 434.984 593.5 433.984 593.5H430.484Z" fill="black"/>
<path d="M240 49.6615L262.989 48H286.618L310.246 50.4923L322.06 53.8154L328.126 55.4769L333.874 57.1385L338.982 58.8L344.091 60.4615L354.309 64.6154L365.165 70.4308L375.382 77.0769L384.961 83.7231L394.54 91.2L411.144 106.985L422 156L401.565 137.723L379.214 119.446L353.032 103.662L325.572 93.6923L306.414 88.7077L282.786 86.2154L259.796 87.0462L240 89.5385V49.6615Z" fill="#2D7EB9"/>
<path d="M240 145.785L265.895 144H292.509L319.123 146.677L332.43 150.246L339.263 152.031L345.737 153.815L351.491 155.6L357.246 157.385L368.754 161.846L380.982 168.092L392.491 175.231L403.281 182.369L414.07 190.4L432.828 202.829L445 260L421.982 240.369L396.807 220.738L367.316 203.785L336.386 193.077L314.807 187.723L288.193 185.046L262.298 185.938L240 188.615V145.785Z" fill="#2D7EB9"/>
<path d="M240 239.969L268.8 238H298.4L328 240.954L342.8 244.892L350.4 246.862L357.6 248.831L364 250.8L370.4 252.769L383.2 257.692L396.8 264.585L411 271.247L423.169 277.896L435.337 285.377L453.91 297.844L468 366L442.4 344.338L414.4 322.677L381.6 303.969L347.596 293.688L323.258 287.87L293.157 285.377L264.8 284.277L240 287.231V239.969Z" fill="#2D7EB9"/>
<path d="M240 330.185L271.958 328H304.804L337.649 331.277L354.072 335.646L362.505 337.831L370.495 340.015L377.596 342.2L384.698 344.385L398.902 349.846L413.993 357.492L429.75 364.883L443.253 372.26L456.756 380.558L477.365 394.39L493 470L464.593 445.969L433.523 421.938L397.126 401.185L359.393 389.779L332.388 383.325L298.986 380.558L267.519 379.338L240 382.615V330.185Z" fill="#2D7EB9"/>
<path d="M240 429.215L274.611 427H310.182L345.754 430.323L363.54 434.754L372.674 436.969L381.326 439.185L389.018 441.4L396.709 443.615L412.091 449.154L428.435 456.908L445.5 464.403L460.124 471.883L474.747 480.299L497.067 494.325L514 571L483.235 546.631L449.586 522.262L410.168 501.215L369.303 489.649L340.056 483.104L303.882 480.299L269.804 479.062L240 482.385V429.215Z" fill="#2D7EB9"/>
<path d="M204.502 0L215 2.49571V482.504L191 485L204.502 0Z" fill="#2D7EB9"/>
<path d="M180.263 1H191L167.632 489.843L143 494L180.263 1Z" fill="#2D7EB9"/>
<path d="M158.714 9.98507L169 5L121.429 499.353L97 506L158.714 9.98507Z" fill="#2D7EB9"/>
<path d="M136.235 26.1396L146 17L74.3893 513.03L49 523L136.235 26.1396Z" fill="#2D7EB9"/>
<path d="M108.652 55.4678L119 48L25.8696 535.064L0 550L108.652 55.4678Z" fill="#2D7EB9"/>
</svg>
