<svg width="167" height="75" viewBox="0 0 167 75" fill="none" xmlns="http://www.w3.org/2000/svg">
<g style="mix-blend-mode:darken">
<path d="M35.742 49.023C36.653 49.023 37.435 49.381 38.086 50.097C38.802 50.748 39.16 51.562 39.16 52.539C39.16 53.45 38.802 54.231 38.086 54.882C37.435 55.533 36.653 55.859 35.742 55.859H3.61301C2.63701 55.859 1.79001 55.501 1.07401 54.785C0.358005 54.069 0 53.222 0 52.246V3.711C0 2.734 0.358005 1.88802 1.07401 1.17102C1.79001 0.39002 2.63701 0 3.61301 0H35.742C36.653 0 37.435 0.358036 38.086 1.07404C38.802 1.72504 39.16 2.50603 39.16 3.41803C39.16 4.32903 38.802 5.14301 38.086 5.85901C37.435 6.51001 36.653 6.836 35.742 6.836H7.32401V24.511H32.812C33.724 24.511 34.505 24.837 35.156 25.488C35.872 26.139 36.23 26.953 36.23 27.929C36.23 28.841 35.905 29.655 35.254 30.371C34.603 31.022 33.789 31.347 32.812 31.347H7.32401V49.023H35.742ZM51.074 17.089C55.566 15.136 60.221 14.192 65.039 14.257C70.443 14.257 74.642 15.918 77.637 19.238C80.306 22.102 81.673 25.683 81.738 29.98V52.636C81.738 53.613 81.347 54.459 80.566 55.175C79.85 55.892 78.971 56.25 77.93 56.25C76.953 56.25 76.107 55.892 75.39 55.175C74.674 54.459 74.316 53.613 74.316 52.636V50.586C72.884 52.083 70.963 53.483 68.555 54.785C66.146 56.022 63.086 56.64 59.375 56.64C55.664 56.64 52.571 55.566 50.097 53.418C47.558 51.204 46.289 48.307 46.289 44.726C46.289 40.755 47.786 37.63 50.781 35.351C54.036 32.877 58.659 31.673 64.648 31.738H74.316V31.054C74.316 27.474 73.437 24.935 71.68 23.437C69.987 21.94 67.318 21.191 63.672 21.191C60.612 21.191 57.064 21.81 53.027 23.047C52.637 23.177 52.148 23.242 51.562 23.242C51.042 23.242 50.488 22.981 49.902 22.461C49.316 21.875 48.991 20.996 48.926 19.824C48.926 18.587 49.642 17.675 51.074 17.089ZM53.613 43.847C53.613 48.144 56.445 50.26 62.109 50.195C64.583 50.195 66.894 49.609 69.043 48.437C71.256 47.2 73.014 45.833 74.316 44.336V37.597H65.723C61.946 37.597 58.984 38.086 56.836 39.062C54.687 39.974 53.613 41.569 53.613 43.847ZM106.933 49.902C112.858 49.902 115.788 48.047 115.723 44.336C115.723 43.164 115.137 42.252 113.965 41.601C112.793 40.95 111.328 40.397 109.57 39.941C107.812 39.485 105.892 38.997 103.808 38.476C101.725 37.955 99.772 37.239 97.949 36.328C96.126 35.416 94.629 34.244 93.457 32.812C92.285 31.315 91.699 29.492 91.699 27.343C91.699 25.195 92.025 23.372 92.676 21.875C93.327 20.312 94.303 18.977 95.605 17.871C98.405 15.462 102.311 14.257 107.324 14.257C111.361 14.257 115.234 14.908 118.945 16.211C119.661 16.471 120.215 16.927 120.605 17.578C121.061 18.164 121.289 18.815 121.289 19.531C121.289 20.182 120.963 20.833 120.312 21.484C119.726 22.135 119.14 22.461 118.555 22.461C117.969 22.461 117.252 22.33 116.406 22.07C113.867 21.289 111.068 20.898 108.008 20.898C104.948 20.898 102.637 21.419 101.074 22.461C99.512 23.502 98.73 24.804 98.73 26.367C98.73 27.864 99.316 28.971 100.488 29.687C101.66 30.338 103.125 30.924 104.883 31.445C106.706 31.966 108.659 32.454 110.742 32.91C112.89 33.366 114.844 34.049 116.601 34.961C120.768 37.109 122.851 40.397 122.851 44.824C122.851 48.274 121.549 51.041 118.945 53.125C116.211 55.468 112.337 56.64 107.324 56.64C101.986 56.64 97.168 55.436 92.871 53.027C91.959 52.376 91.471 51.595 91.406 50.683C91.406 49.707 91.699 48.893 92.285 48.242C92.936 47.526 93.587 47.168 94.238 47.168C94.889 47.168 95.736 47.395 96.777 47.851C99.837 49.218 103.223 49.902 106.933 49.902ZM162.988 14.648C164.03 14.648 164.876 15.006 165.527 15.722C166.243 16.438 166.601 17.187 166.601 17.968C166.601 18.75 166.504 19.336 166.308 19.726L144.531 72.168C143.88 73.86 142.773 74.707 141.211 74.707C140.299 74.707 139.486 74.349 138.769 73.632C138.118 72.916 137.793 72.2 137.793 71.484C137.793 70.833 137.858 70.28 137.988 69.824L143.164 56.445L128.125 19.824C127.93 19.303 127.832 18.685 127.832 17.968C127.832 17.187 128.157 16.438 128.808 15.722C129.525 15.006 130.306 14.648 131.152 14.648C132.91 14.648 134.114 15.397 134.765 16.894L147.07 47.461L159.668 16.992C160.319 15.364 161.426 14.583 162.988 14.648Z" fill="#2D7EB9"/>
</g>
</svg>
